# xmcd
#
# Track frame offsets:
#	150
#	11067
#	63237
#	67717
#	88548
#	113223
#	140557
#	176157
#
# Disc length: 2895 seconds
#
# Revision: 1
# Processed by: cddbd v1.5.1PL2 Copyright (c) Steve Scherf et al.
# Submitted via: EasyCDDAExtractor 9.0.0.1
#
DISCID=660b4d08
DTITLE=Whitesnake - Mielparque Hiroshima 10-05-06 Disc 2
DYEAR=2006
DGENRE=Hard Rock
TTITLE0=Snake Dance 
TTITLE1=Crying In The Rain (incl Drum Solo) 
TTITLE2=Band Introduction
TTITLE3=Is This Love 
TTITLE4=Guilty Of Love 
TTITLE5=Here I Go Again
TTITLE6=Take Me With You 
TTITLE7=Still Of The Night 
EXTD=
EXTT0=
EXTT1=
EXTT2=
EXTT3=
EXTT4=
EXTT5=
EXTT6=
EXTT7=
PLAYORDER=
